# AST/ASF file generated using VICON BodyLanguage
# -----------------------------------------------
:version 1.10
:name VICON
:units
  mass 1.0
  length 0.45
  angle deg
:documentation
   .ast/.asf automatically generated from VICON data using
   VICON BodyBuilder and BodyLanguage model FoxedUp or BRILLIANT.MOD
:root
   order TX TY TZ RX RY RZ
   axis XYZ
   position 0 0 0  
   orientation 0 0 0 
:bonedata
  begin
     id 1 
     name lhipjoint
     direction 0.722297 -0.617336 0.311742 
     length 2.6635 
     axis 0 0 0  XYZ
  end
  begin
     id 2 
     name lfemur
     direction 0.34202 -0.939693 0  
     length 7.39349  
     axis 0 0 20  XYZ
    dof rx ry rz
    limits (-160.0 20.0)
           (-70.0 70.0)
           (-60.0 70.0)
  end
  begin
     id 3 
     name ltibia
     direction 0.34202 -0.939693 0   
     length 7.36294   
     axis 0 0 20   XYZ
    dof rx
    limits (-10.0 170.0)
  end
  begin
     id 4 
     name lfoot
     direction 0.104879 -0.288152 0.951824   
     length 2.16981   
     axis -90 7.62852e-016 20   XYZ
    dof rx rz
    limits (-45.0 90.0)
           (-70.0 20.0)
  end
  begin
     id 5 
     name ltoes
     direction 1.53586e-011 -4.21895e-011 1   
     length 1.08218   
     axis -90 7.62852e-016 20   XYZ
    dof rx
    limits (-90.0 20.0)
  end
  begin
     id 6 
     name rhipjoint
     direction -0.75102 -0.589393 0.297631   
     length 2.78977  
     axis 0 0 0  XYZ 
  end
  begin
     id 7 
     name rfemur
     direction -0.34202 -0.939693 0   
     length 7.46076   
     axis 0 0 -20   XYZ
    dof rx ry rz
    limits (-160.0 20.0)
           (-70.0 70.0)
           (-70.0 60.0)
  end
  begin
     id 8 
     name rtibia
     direction -0.34202 -0.939693 0   
     length 7.31726   
     axis 0 0 -20   XYZ
    dof rx
    limits (-10.0 170.0)
 end
 begin
     id 9 
     name rfoot
     direction -0.107991 -0.296704 0.948844   
     length 2.09388  
     axis -90 -7.62852e-016 -20   XYZ
    dof rx rz
    limits (-45.0 90.0)
           (-20.0 70.0)
  end
  begin
     id 10 
     name rtoes
     direction -1.53559e-011 -4.21911e-011 1   
     length 1.04433   
     axis -90 -7.62852e-016 -20   XYZ
    dof rx
    limits (-90.0 20.0)
  end
  begin
     id 11 
     name lowerback
     direction 0.0165164 0.98272 0.184358   
     length 1.71896   
     axis 0 0 0   XYZ
    dof rx ry rz
    limits (-20.0 45.0)
           (-30.0 30.0)
           (-30.0 30.0)
  end
  begin
     id 12 
     name upperback
     direction -0.00887249 0.992297 0.123566   
     length 1.71504   
     axis 0 0 0   XYZ
    dof rx ry rz
    limits (-20.0 45.0)
           (-30.0 30.0)
           (-30.0 30.0)
  end
  begin
     id 13 
     name thorax
     direction -0.0157026 0.998908 0.0440032   
     length 1.77022   
     axis 0 0 0   XYZ
    dof rx ry rz
    limits (-20.0 45.0)
           (-30.0 30.0)
           (-30.0 30.0)
  end
  begin
     id 14 
     name lowerneck
     direction -0.0238856 0.998137 0.0561411   
     length 1.89341   
     axis 0 0 0   XYZ
    dof rx ry rz
    limits (-20.0 45.0)
           (-30.0 30.0)
           (-30.0 30.0)
  end
  begin
     id 15 
     name upperneck
     direction 0.0276574 0.952253 -0.304056   
     length 1.86999   
     axis 0 0 0   XYZ
    dof rx ry rz
    limits (-20.0 45.0)
           (-30.0 30.0)
           (-30.0 30.0)
  end
  begin
     id 16
     name head
     direction 0.00800083 0.994258 -0.106712  
     length 1.91492  
     axis 0 0 0   XYZ
    dof rx ry rz
    limits (-20.0 45.0)
           (-30.0 30.0)
           (-30.0 30.0)
  end
  begin
     id 17 
     name lclavicle
     direction 0.97203 0.225407 0.06595  
     length 3.34889  
     axis 0 0 0   XYZ
    dof ry rz
    limits (-20.0 10.0)
           (0.0 20.0)
  end
  begin
     id 18 
     name lhumerus
     direction 1 -4.48973e-011 2.20267e-027   
     length 4.85645   
     axis 180 -30 -90   XYZ
    dof rx ry rz
    limits (-60.0 90.0)
           (-90.0 90.0)
           (-90.0 90.0)
  end
  begin
     id 19
     name lradius
     direction 1 -4.4897e-011 4.60472e-027   
     length 2.79874   
     axis 180 -30 -90   XYZ
    dof rx
    limits (-10.0 170.0)
  end
  begin
     id 20
     name lwrist
     direction 1 -4.48952e-011 1.14928e-026   
     length 1.39937   
     axis -6.29373e-015 90 90   XYZ
    dof ry
    limits (-180.0 0.0)
 end
  begin
     id 21 
     name lhand
     direction 1 -4.48967e-011 2.29886e-026   
     length 0.573398   
     axis -1.46689e-014 90 90   XYZ
    dof rx rz
    limits (-90.0 90.0)
           (-45.0 45.0)
  end
  begin
     id 22 
     name lfingers
     direction 1 -4.48955e-011 4.59726e-026   
     length 0.462289   
     axis -2.93383e-014 90 90   XYZ
    dof rx
    limits (0.0 90.0)
  end
  begin
     id 23
     name lthumb
     direction 0.707107 -6.34866e-011 0.707107   
     length 0.663757   
     axis -90 45 5.69224e-014   XYZ
    dof rx rz
    limits (-45.0 45.0)
           (-45.0 45.0)
  end
  begin
     id 24 
     name rclavicle
     direction -0.981571 0.157346 0.108443   
     length 3.35257  
     axis 0 0 0   XYZ 
    dof ry rz
    limits (-10.0 20.0)
           (-20.0 0.0)
  end
  begin
     id 25 
     name rhumerus
     direction -1 -4.48967e-011 8.58308e-029  
     length 4.67018   
     axis 180 30 90   XYZ
    dof rx ry rz
    limits (-90.0 60.0)
           (-90.0 90.0)
           (-90.0 90.0)
  end
  begin
     id 26 
     name rradius
     direction -1 -4.48958e-011 4.52548e-027   
     length 2.65534   
     axis 180 30 90   XYZ
    dof rx
    limits (-10.0 170.0)
  end
  begin
     id 27 
     name rwrist
     direction -1 -4.48977e-011 1.14952e-026   
     length 1.32767   
     axis -6.29373e-015 -90 -90   XYZ
    dof ry
    limits (-180.0 0.0)
  end
  begin
     id 28
     name rhand
     direction -1 -4.48924e-011 2.29804e-026   
     length 0.594069   
     axis -1.46689e-014 -90 -90   XYZ
    dof rx rz
    limits (-90.0 90.0)
           (-45.0 45.0)
  end
  begin
     id 29
     name rfingers
     direction -1 -4.48998e-011 4.59888e-026   
     length 0.478954   
     axis -2.93383e-014 -90 -90   XYZ
    dof rx
    limits (0.0 90.0)
  end
  begin
     id 30
     name rthumb
     direction -0.707107 -6.34933e-011 0.707107   
     length 0.687685   
     axis -90 -45 -5.69224e-014   XYZ
    dof rx rz
    limits (-45.0 45.0)
           (-45.0 45.0)
  end
:hierarchy
  begin
    root lhipjoint rhipjoint lowerback
    lhipjoint lfemur
    lfemur ltibia
    ltibia lfoot
    lfoot ltoes
    rhipjoint rfemur
    rfemur rtibia
    rtibia rfoot
    rfoot rtoes
    lowerback upperback
    upperback thorax
    thorax lowerneck lclavicle rclavicle
    lowerneck upperneck
    upperneck head
    lclavicle lhumerus
    lhumerus lradius
    lradius lwrist
    lwrist lhand lthumb
    lhand lfingers
    rclavicle rhumerus
    rhumerus rradius
    rradius rwrist
    rwrist rhand rthumb
    rhand rfingers
  end

#!OML:ASF E:\pregnant2\Project 1\Capture day 1\Session 1\pregnant2.ASF
:FULLY-SPECIFIED
:DEGREES
86
root 9.43848 10.7185 18.438 28.9722 1.17093 -8.05178
lowerback -52.902 3.96708 9.41463
upperback -11.0857 -0.550126 1.58898
thorax 8.16997 -0.270693 -2.74854
lowerneck -8.82016 -3.54763 -6.22996
upperneck 37.7725 -4.85382 2.15869
head 14.7677 -2.75928 1.26835
rclavicle -9.64106e-015 6.95746e-015
rhumerus -37.8911 27.7631 -81.5896
rradius 68.1896
rwrist 34.4291
rhand 13.3415 -10.9973
rfingers 7.12502
rthumb 38.2883 -36.7175
lclavicle -9.64106e-015 6.95746e-015
lhumerus -42.5808 -18.6461 82.084
lradius 73.8139
lwrist -19.9146
lhand 11.7212 23.8453
lfingers 7.12502
lthumb 36.757 49.9722
rfemur -111.622 3.74841 39.127
rtibia 80.7878
rfoot 6.19177 -2.62475
rtoes 10.4419
lfemur -116.575 1.9892 -13.9463
ltibia 87.1495
lfoot 3.72386 4.83903
ltoes -12.6665
87
root 9.43785 10.7195 18.4383 29.0439 1.15525 -8.02552
lowerback -52.9843 4.00523 9.42466
upperback -11.0941 -0.517146 1.56466
thorax 8.16979 -0.257441 -2.7627
lowerneck -8.88438 -3.5469 -6.1983
upperneck 37.7651 -4.85021 2.1451
head 14.777 -2.75397 1.25651
rclavicle -2.5842e-015 -8.54774e-015
rhumerus -37.922 27.8029 -81.61
rradius 68.2078
rwrist 34.4045
rhand 13.3816 -10.9866
rfingers 7.12502
rthumb 38.3261 -36.6963
lclavicle -2.5842e-015 -8.54774e-015
lhumerus -42.4702 -18.6271 82.106
lradius 73.4979
lwrist -20.5668
lhand 11.7706 23.7466
lfingers 7.12502
lthumb 36.8037 49.8615
rfemur -111.646 3.83325 39.046
rtibia 80.7402
rfoot 6.07176 -2.81375
rtoes 10.618
lfemur -116.63 1.98584 -13.9496
ltibia 87.1302
lfoot 3.73926 4.86176
ltoes -12.6756
88
root 9.43718 10.7187 18.4391 29.105 1.14529 -8.00245
lowerback -53.0452 4.04117 9.43692
upperback -11.1058 -0.485755 1.54575
thorax 8.16352 -0.244919 -2.77322
lowerneck -8.94982 -3.54774 -6.17146
upperneck 37.7525 -4.84591 2.12727
head 14.7841 -2.74952 1.24381
rclavicle 1.07344e-014 -4.17448e-015
rhumerus -37.9514 27.8403 -81.617
rradius 68.2421
rwrist 34.3539
rhand 13.4399 -10.9761
rfingers 7.12502
rthumb 38.3812 -36.6706
lclavicle 1.07344e-014 -4.17448e-015
lhumerus -42.3449 -18.5969 82.1309
lradius 73.1725
lwrist -21.2526
lhand 11.8732 23.6705
lfingers 7.12502
lthumb 36.9008 49.7606
rfemur -111.666 3.91056 38.9719
rtibia 80.7075
rfoot 5.9221 -2.99861
rtoes 10.7992
lfemur -116.692 1.98209 -13.9563
ltibia 87.1266
lfoot 3.75152 4.87677
ltoes -12.6835
89
root 9.43658 10.7164 18.4405 29.1568 1.1396 -7.98157
lowerback -53.093 4.07688 9.45193
upperback -11.1182 -0.454833 1.53018
thorax 8.15504 -0.232514 -2.78189
lowerneck -9.02419 -3.54767 -6.15125
upperneck 37.7433 -4.83958 2.1138
head 14.7952 -2.74444 1.23427
rclavicle -1.33186e-014 -1.5704e-014
rhumerus -37.9821 27.8749 -81.6122
rradius 68.2934
rwrist 34.2762
rhand 13.5124 -10.9712
rfingers 7.12502
rthumb 38.4496 -36.6466
lclavicle -1.33186e-014 -1.5704e-014
lhumerus -42.2082 -18.5575 82.1575
lradius 72.8471
lwrist -21.9548
lhand 12.0523 23.63
lfingers 7.12502
lthumb 37.0702 49.6763
rfemur -111.684 3.97946 38.9034
rtibia 80.6895
rfoot 5.73909 -3.17531
rtoes 10.9892
lfemur -116.756 1.97788 -13.9673
ltibia 87.1385
lfoot 3.7584 4.8873
ltoes -12.687
90
root 9.43602 10.7127 18.4426 29.1952 1.13589 -7.96481
lowerback -53.127 4.11178 9.47179
upperback -11.1285 -0.426659 1.52033
thorax 8.14696 -0.221022 -2.78801
lowerneck -9.10945 -3.54253 -6.14433
upperneck 37.7413 -4.82732 2.11577
head 14.813 -2.73648 1.23427
rclavicle 9.44227e-015 -3.77691e-015
rhumerus -38.0118 27.9113 -81.5944
rradius 68.3626
rwrist 34.169
rhand 13.601 -10.9704
rfingers 7.12502
rthumb 38.5332 -36.6225
lclavicle 9.44227e-015 -3.77691e-015
lhumerus -42.0623 -18.5033 82.1857
lradius 72.5276
lwrist -22.658
lhand 12.2926 23.6484
lfingers 7.12502
lthumb 37.2974 49.6354
rfemur -111.692 4.04012 38.8421
rtibia 80.6841
rfoot 5.52314 -3.34501
rtoes 11.2099
lfemur -116.82 1.97579 -13.9822
ltibia 87.1664
lfoot 3.75937 4.89288
ltoes -12.6866
